<svg width="400" height="174" viewBox="0 0 400 174" fill="none" xmlns="http://www.w3.org/2000/svg">
<path d="M110.857 6.33409C110.857 10.0912 110.857 13.9249 110.857 17.682C110.857 21.4391 110.857 25.2728 110.857 29.0299C110.857 32.787 110.857 36.6206 110.857 40.3777C110.857 44.1348 110.857 47.9685 110.857 51.7256C110.857 55.4827 110.857 59.3164 110.857 63.0735C110.857 66.8306 110.857 70.6643 110.857 74.4214C110.857 74.5 110.856 74.5783 110.856 74.6562C110.836 77.8598 108.035 80.0953 104.832 80.0953C101.628 80.0953 98.8272 77.8598 98.8075 74.6562C98.8071 74.5783 98.8068 74.5 98.8068 74.4214C98.8068 73.8983 98.8165 73.3953 98.8359 72.9124C98.9219 70.7718 97.2929 68.7475 95.1506 68.7475C93.6049 68.7475 92.2481 67.677 92.0987 66.1386C92.0064 65.1886 91.9603 64.1669 91.9603 63.0735C91.9603 61.9124 92.0081 60.8502 92.1037 59.8871C92.2306 58.608 91.271 57.3996 89.9856 57.3996C89.0583 57.3996 88.2461 56.7585 88.1157 55.8403C87.9401 54.6051 87.8524 53.2336 87.8524 51.7256C87.8524 50.8917 87.877 50.1089 87.9263 49.3771C88.0415 47.6672 86.7508 46.0517 85.0369 46.0517C83.8004 46.0517 82.7159 45.1962 82.5702 43.9683C82.4402 42.8725 82.3752 41.6756 82.3752 40.3777C82.3752 39.3025 82.4162 38.3121 82.4981 37.4067C82.6239 36.0168 81.5799 34.7038 80.1843 34.7038C78.7887 34.7038 77.7447 36.0168 77.8705 37.4067C77.9524 38.3121 77.9934 39.3025 77.9934 40.3777C77.9934 44.1348 77.9934 47.9685 77.9934 51.7256C77.9934 55.4827 77.9934 59.3164 77.9934 63.0735C77.9934 66.8306 77.9934 70.6643 77.9934 74.4214C77.9934 74.5 77.9932 74.5783 77.9927 74.6562C77.9731 77.8598 75.1721 80.0953 71.9685 80.0953C68.7648 80.0953 65.9639 77.8598 65.9442 74.6562C65.9438 74.5783 65.9435 74.5 65.9435 74.4214C65.9435 70.6643 65.9435 66.8306 65.9435 63.0735C65.9435 59.3164 65.9435 55.4827 65.9435 51.7256C65.9435 47.9685 65.9435 44.1348 65.9435 40.3777C65.9435 36.6206 65.9435 32.787 65.9435 29.0299C65.9435 25.2728 65.9435 21.4391 65.9435 17.682C65.9435 13.9249 65.9435 10.0912 65.9435 6.33409C65.9435 2.9825 68.8527 0.660156 72.2043 0.660156H74.4712C77.8228 0.660156 80.732 2.9825 80.732 6.33409C80.732 7.47355 80.6819 8.53514 80.5817 9.51887C80.4507 10.8043 81.4145 12.008 82.7067 12.008C83.6368 12.008 84.4543 12.6446 84.5851 13.5655C84.755 14.7617 84.8399 16.1338 84.8399 17.682C84.8399 18.8214 84.7898 19.883 84.6896 20.8668C84.5586 22.1522 85.5225 23.3559 86.8146 23.3559C87.7447 23.3559 88.5622 23.9925 88.693 24.9134C88.8629 26.1096 88.9478 27.4817 88.9478 29.0299C88.9478 29.8528 88.9217 30.6352 88.8694 31.3769C88.7483 33.0955 90.0404 34.7038 91.7633 34.7038C93.0035 34.7038 94.094 35.5535 94.2379 36.7854C94.3627 37.8536 94.4251 39.051 94.4251 40.3777C94.4251 41.4346 94.382 42.4245 94.2957 43.3474C94.1652 44.7442 95.213 46.0517 96.6159 46.0517C98.0188 46.0517 99.0666 44.7442 98.9361 43.3474C98.8499 42.4245 98.8068 41.4346 98.8068 40.3777C98.8068 36.6206 98.8068 32.787 98.8068 29.0299C98.8068 25.2728 98.8068 21.4391 98.8068 17.682C98.8068 13.9249 98.8068 10.0912 98.8068 6.33409C98.8068 6.25498 98.8071 6.17633 98.8075 6.09815C98.8257 2.88496 101.619 0.660156 104.832 0.660156C108.045 0.660156 110.838 2.88496 110.856 6.09813C110.856 6.17633 110.857 6.25498 110.857 6.33409Z" fill="white"/>
<path d="M163.549 68.7475C164.479 68.7475 165.297 69.384 165.428 70.305C165.597 71.5011 165.682 72.8732 165.682 74.4214C165.682 74.5 165.682 74.5783 165.682 74.6562C165.662 77.8598 162.861 80.0953 159.657 80.0953C156.454 80.0953 153.653 77.8598 153.633 74.6562C153.633 74.5783 153.632 74.5 153.632 74.4214C153.632 73.2602 153.68 72.1981 153.776 71.235C153.903 69.9559 152.943 68.7475 151.658 68.7475C150.73 68.7475 149.918 68.1064 149.788 67.1882C149.612 65.953 149.525 64.5814 149.525 63.0735C149.525 62.8469 149.526 62.6241 149.53 62.4051C149.573 59.8347 147.598 57.3996 145.028 57.3996C143.173 57.3996 141.544 56.1135 141.401 54.2643C141.34 53.466 141.309 52.6198 141.309 51.7256C141.309 51.4115 141.312 51.1046 141.319 50.8049C141.376 48.3634 139.506 46.0517 137.064 46.0517C134.622 46.0517 132.752 48.3634 132.809 50.8049C132.816 51.1046 132.819 51.4115 132.819 51.7256C132.819 55.4827 132.819 59.3164 132.819 63.0735C132.819 66.8306 132.819 70.6643 132.819 74.4214C132.819 74.5 132.819 74.5783 132.818 74.6562C132.799 77.8598 129.998 80.0953 126.794 80.0953C123.59 80.0953 120.79 77.8598 120.77 74.6562C120.769 74.5783 120.769 74.5 120.769 74.4214C120.769 70.6643 120.769 66.8306 120.769 63.0735C120.769 59.3164 120.769 55.4827 120.769 51.7256C120.769 47.9685 120.769 44.1348 120.769 40.3777C120.769 36.6206 120.769 32.787 120.769 29.0299C120.769 25.2728 120.769 21.4391 120.769 17.682C120.769 13.9249 120.769 10.0912 120.769 6.33409C120.769 6.25498 120.769 6.17633 120.77 6.09813C120.788 2.88496 123.581 0.660156 126.794 0.660156C130.007 0.660156 132.8 2.88496 132.818 6.09813C132.819 6.17633 132.819 6.25498 132.819 6.33409C132.819 10.0912 132.819 13.9249 132.819 17.682C132.819 21.4391 132.819 25.2728 132.819 29.0299C132.819 29.3422 132.815 29.6487 132.808 29.9493C132.746 32.4036 134.609 34.7038 137.064 34.7038C139.519 34.7038 141.382 32.4036 141.32 29.9493C141.313 29.6487 141.309 29.3422 141.309 29.0299C141.309 28.1227 141.338 27.276 141.396 26.4898C141.534 24.6346 143.167 23.3559 145.028 23.3559C147.612 23.3559 149.577 20.9331 149.53 18.3493C149.527 18.1299 149.525 17.9075 149.525 17.682C149.525 16.1338 149.61 14.7617 149.779 13.5655C149.91 12.6446 150.728 12.008 151.658 12.008C152.95 12.008 153.914 10.8043 153.783 9.51887C153.683 8.53514 153.632 7.47355 153.632 6.33409C153.632 6.25498 153.633 6.17633 153.633 6.09814C153.651 2.88496 156.444 0.660156 159.657 0.660156C162.871 0.660156 165.663 2.88496 165.682 6.09813C165.682 6.17633 165.682 6.25498 165.682 6.33409C165.682 7.84202 165.595 9.21358 165.419 10.4488C165.289 11.3669 164.476 12.008 163.549 12.008C162.264 12.008 161.304 13.2165 161.431 14.4956C161.527 15.4587 161.574 16.5208 161.574 17.682C161.574 18.5761 161.544 19.4223 161.482 20.2206C161.339 22.0699 159.71 23.3559 157.856 23.3559C155.285 23.3559 153.31 25.791 153.353 28.3614C153.357 28.5805 153.359 28.8033 153.359 29.0299C153.359 30.1233 153.312 31.145 153.22 32.095C153.071 33.6334 151.714 34.7038 150.168 34.7038C148.026 34.7038 146.397 36.7282 146.483 38.8688C146.502 39.3517 146.512 39.8547 146.512 40.3777C146.512 40.8965 146.502 41.399 146.481 41.8855C146.389 44.037 148.015 46.0517 150.168 46.0517C151.719 46.0517 153.081 47.1154 153.227 48.6589C153.315 49.5901 153.359 50.6124 153.359 51.7256C153.359 51.9511 153.357 52.1736 153.353 52.3929C153.307 54.9768 155.271 57.3996 157.856 57.3996C159.716 57.3996 161.349 58.6782 161.487 60.5334C161.545 61.3197 161.574 62.1664 161.574 63.0735C161.574 64.213 161.524 65.2746 161.424 66.2583C161.293 67.5438 162.257 68.7475 163.549 68.7475Z" fill="white"/>
<path d="M198.287 46.0517C195.376 46.0517 193.122 48.8143 193.122 51.7256C193.122 55.4827 193.122 59.3164 193.122 63.0735C193.122 65.9995 195.36 68.7475 198.286 68.7475H208.77C212.122 68.7475 215.031 71.0698 215.031 74.4214C215.031 77.7623 212.112 80.0953 208.771 80.0953H187.332C183.991 80.0953 181.072 77.7623 181.072 74.4214C181.072 70.6643 181.072 66.8306 181.072 63.0735C181.072 59.3164 181.072 55.4827 181.072 51.7256C181.072 47.9685 181.072 44.1348 181.072 40.3777C181.072 36.6206 181.072 32.787 181.072 29.0299C181.072 25.2728 181.072 21.4391 181.072 17.682C181.072 13.9249 181.072 10.0912 181.072 6.33409C181.072 2.9825 183.981 0.660156 187.333 0.660156H208.77C212.122 0.660156 215.031 2.98251 215.031 6.33409C215.031 9.675 212.112 12.008 208.771 12.008H198.287C195.376 12.008 193.122 14.7707 193.122 17.682C193.122 21.4391 193.122 25.2728 193.122 29.0299C193.122 31.9559 195.36 34.7038 198.286 34.7038H208.77C212.122 34.7038 215.031 37.0262 215.031 40.3777C215.031 43.7187 212.112 46.0517 208.771 46.0517H198.287Z" fill="white"/>
<path d="M275.334 29.0299C275.334 32.787 275.334 36.6206 275.334 40.3777C275.334 44.1348 275.334 47.9685 275.334 51.7256C275.334 53.0235 275.269 54.2204 275.139 55.3162C274.993 56.5441 273.909 57.3996 272.672 57.3996C270.958 57.3996 269.667 59.015 269.783 60.725C269.832 61.4568 269.857 62.2396 269.857 63.0735C269.857 64.3714 269.792 65.5682 269.662 66.6641C269.516 67.892 268.431 68.7475 267.195 68.7475C265.481 68.7475 264.19 70.3629 264.305 72.0729C264.355 72.8047 264.379 73.5875 264.379 74.4214C264.379 77.7623 261.461 80.0953 258.12 80.0953H236.68C233.339 80.0953 230.421 77.7623 230.421 74.4214C230.421 70.6643 230.421 66.8306 230.421 63.0735C230.421 59.3164 230.421 55.4827 230.421 51.7256C230.421 47.9685 230.421 44.1348 230.421 40.3777C230.421 36.6206 230.421 32.787 230.421 29.0299C230.421 25.2728 230.421 21.4391 230.421 17.682C230.421 13.9249 230.421 10.0912 230.421 6.33409C230.421 2.9825 233.33 0.660156 236.681 0.660156H258.119C261.47 0.660156 264.379 2.9825 264.379 6.33409C264.379 7.15705 264.353 7.93939 264.301 8.68112C264.18 10.3997 265.472 12.008 267.195 12.008C268.435 12.008 269.526 12.8578 269.669 14.0896C269.794 15.1578 269.857 16.3553 269.857 17.682C269.857 18.5049 269.83 19.2873 269.778 20.029C269.657 21.7476 270.949 23.3559 272.672 23.3559C273.912 23.3559 275.003 24.2057 275.147 25.4375C275.271 26.5057 275.334 27.7031 275.334 29.0299ZM260.468 57.3996C262.191 57.3996 263.483 55.7912 263.362 54.0727C263.31 53.3309 263.284 52.5486 263.284 51.7256C263.284 47.9685 263.284 44.1348 263.284 40.3777C263.284 36.6206 263.284 32.787 263.284 29.0299C263.284 28.196 263.309 27.4131 263.358 26.6814C263.473 24.9714 262.182 23.3559 260.468 23.3559C259.232 23.3559 258.147 22.5004 258.002 21.2725C257.872 20.1767 257.807 18.9798 257.807 17.682C257.807 14.7707 255.553 12.008 252.641 12.008H247.636C244.724 12.008 242.47 14.7707 242.47 17.682C242.47 21.4391 242.47 25.2728 242.47 29.0299C242.47 32.787 242.47 36.6206 242.47 40.3777C242.47 44.1348 242.47 47.9685 242.47 51.7256C242.47 55.4827 242.47 59.3164 242.47 63.0735C242.47 65.9995 244.709 68.7475 247.635 68.7475H252.643C255.569 68.7475 257.807 65.9995 257.807 63.0735C257.807 61.7468 257.869 60.5494 257.994 59.4812C258.138 58.2493 259.228 57.3996 260.468 57.3996Z" fill="white"/>
<path fill-rule="evenodd" clip-rule="evenodd" d="M47.8152 74.4214C47.8152 73.5143 47.7861 72.6676 47.7277 71.8813C47.5901 70.0261 45.9568 68.7475 44.0964 68.7475C41.5122 68.7475 39.5473 66.3247 39.5935 63.7408C39.5975 63.5214 39.5994 63.299 39.5994 63.0735C39.5994 59.3164 39.5994 55.4827 39.5994 51.7256C39.5994 47.9685 39.5994 44.1348 39.5994 40.3777C39.5994 36.6206 39.5994 32.787 39.5994 29.0299C39.5994 25.2728 39.5994 21.4391 39.5994 17.682C39.5994 14.7707 41.8534 12.008 44.7648 12.008H48.7407C52.0816 12.008 55.0004 9.675 55.0004 6.33409C55.0004 2.9825 52.0912 0.660156 48.7396 0.660156L18.2614 0.660156C14.9098 0.660156 12.0006 2.9825 12.0006 6.33409C12.0006 9.675 14.9194 12.008 18.2603 12.008H22.3842C25.2955 12.008 27.5496 14.7707 27.5496 17.682C27.5496 21.4391 27.5496 25.2728 27.5496 29.0299C27.5496 32.787 27.5496 36.6206 27.5496 40.3777C27.5496 44.1348 27.5496 47.9685 27.5496 51.7256C27.5496 55.4827 27.5496 59.3164 27.5496 63.0735C27.5496 65.9995 25.3114 68.7475 22.3854 68.7475H19.334C19.334 68.7475 18.6673 70.2276 18.6673 74.224C18.6673 78.2205 19.334 80.0953 19.334 80.0953H41.5556C44.8965 80.0953 47.8152 77.7623 47.8152 74.4214Z" fill="white"/>
<path d="M28.352 127.954C31.7035 127.954 34.6125 130.276 34.6125 133.628C34.6125 136.969 31.6939 139.302 28.3531 139.302H17.8783C14.9669 139.302 12.7128 142.064 12.7128 144.976C12.7128 148.733 12.7128 152.566 12.7128 156.324C12.7128 160.081 12.7128 163.914 12.7128 167.671C12.7128 167.751 12.7126 167.83 12.7121 167.908C12.6923 171.111 9.89261 173.345 6.69038 173.345C3.48816 173.345 0.688504 171.111 0.668698 167.908C0.668212 167.83 0.667969 167.751 0.667969 167.671C0.667969 163.914 0.667969 160.081 0.667969 156.324C0.667969 152.566 0.667969 148.733 0.667969 144.976C0.667969 141.219 0.667969 137.385 0.667969 133.628C0.667969 129.871 0.667969 126.037 0.667969 122.28C0.667969 118.523 0.667969 114.689 0.667969 110.932C0.667969 107.175 0.667969 103.341 0.667969 99.5841C0.667969 96.2326 3.57699 93.9102 6.92849 93.9102H28.352C31.7035 93.9102 34.6125 96.2326 34.6125 99.5841C34.6125 102.925 31.6939 105.258 28.3531 105.258H17.8783C14.9669 105.258 12.7128 108.021 12.7128 110.932C12.7128 114.689 12.7128 118.523 12.7128 122.28C12.7128 125.206 14.9511 127.954 17.8772 127.954H28.352Z" fill="white"/>
<path d="M70.6279 139.302C67.7165 139.302 65.4624 142.064 65.4624 144.976C65.4624 148.733 65.4624 152.566 65.4624 156.324C65.4624 159.25 67.7007 161.997 70.6268 161.997H81.1016C84.4531 161.997 87.3621 164.32 87.3621 167.671C87.3621 171.012 84.4436 173.345 81.1027 173.345H59.6769C56.3361 173.345 53.4176 171.012 53.4176 167.671C53.4176 163.914 53.4176 160.081 53.4176 156.324C53.4176 152.566 53.4176 148.733 53.4176 144.976C53.4176 141.219 53.4176 137.385 53.4176 133.628C53.4176 129.871 53.4176 126.037 53.4176 122.28C53.4176 118.523 53.4176 114.689 53.4176 110.932C53.4176 107.175 53.4176 103.341 53.4176 99.5841C53.4176 96.2326 56.3266 93.9102 59.6781 93.9102H81.1016C84.4531 93.9102 87.3621 96.2326 87.3621 99.5841C87.3621 102.925 84.4436 105.258 81.1027 105.258H70.6279C67.7165 105.258 65.4624 108.021 65.4624 110.932C65.4624 114.689 65.4624 118.523 65.4624 122.28C65.4624 125.206 67.7007 127.954 70.6268 127.954H81.1016C84.4531 127.954 87.3621 130.276 87.3621 133.628C87.3621 136.969 84.4436 139.302 81.1027 139.302H70.6279Z" fill="white"/>
<path d="M142.926 139.302C144.166 139.302 145.256 140.151 145.399 141.383C145.524 142.451 145.587 143.649 145.587 144.976C145.587 148.733 145.587 152.566 145.587 156.324C145.587 157.622 145.522 158.819 145.392 159.915C145.246 161.142 144.162 161.997 142.926 161.997C141.213 161.997 139.923 163.612 140.038 165.321C140.087 166.054 140.112 166.837 140.112 167.671C140.112 171.012 137.193 173.345 133.852 173.345H112.427C109.086 173.345 106.167 171.012 106.167 167.671C106.167 166.837 106.192 166.054 106.241 165.321C106.356 163.612 105.066 161.997 103.353 161.997C102.117 161.997 101.033 161.142 100.887 159.915C100.757 158.819 100.692 157.622 100.692 156.324C100.692 156.244 100.692 156.164 100.693 156.085C100.711 152.874 103.503 150.65 106.715 150.65C109.926 150.65 112.718 152.874 112.736 156.085C112.737 156.164 112.737 156.244 112.737 156.324C112.737 159.25 114.975 161.997 117.901 161.997H128.377C131.304 161.997 133.542 159.25 133.542 156.324C133.542 152.566 133.542 148.733 133.542 144.976C133.542 142.064 131.288 139.302 128.376 139.302H112.427C109.086 139.302 106.167 136.969 106.167 133.628C106.167 132.793 106.192 132.01 106.241 131.278C106.356 129.568 105.066 127.954 103.353 127.954C102.117 127.954 101.033 127.099 100.887 125.871C100.757 124.775 100.692 123.578 100.692 122.28C100.692 118.523 100.692 114.689 100.692 110.932C100.692 109.605 100.755 108.407 100.879 107.339C101.023 106.108 102.113 105.258 103.353 105.258C105.075 105.258 106.367 103.651 106.246 101.933C106.193 101.191 106.167 100.408 106.167 99.5841C106.167 96.2326 109.076 93.9102 112.428 93.9102H133.851C137.203 93.9102 140.112 96.2326 140.112 99.5841C140.112 100.408 140.086 101.191 140.033 101.933C139.912 103.651 141.204 105.258 142.926 105.258C144.166 105.258 145.256 106.108 145.399 107.339C145.524 108.407 145.587 109.605 145.587 110.932C145.587 111.011 145.586 111.09 145.586 111.169C145.566 114.371 142.766 116.606 139.564 116.606C136.362 116.606 133.562 114.371 133.543 111.169C133.542 111.09 133.542 111.011 133.542 110.932C133.542 108.021 131.288 105.258 128.376 105.258H117.903C114.991 105.258 112.737 108.021 112.737 110.932C112.737 114.689 112.737 118.523 112.737 122.28C112.737 125.206 114.975 127.954 117.901 127.954H133.851C137.203 127.954 140.112 130.276 140.112 133.628C140.112 134.451 140.086 135.234 140.033 135.976C139.912 137.694 141.204 139.302 142.926 139.302Z" fill="white"/>
<path d="M198.336 99.5841C198.336 102.925 195.418 105.258 192.077 105.258H187.077C184.166 105.258 181.911 108.021 181.911 110.932C181.911 114.689 181.911 118.523 181.911 122.28C181.911 126.037 181.911 129.871 181.911 133.628C181.911 137.385 181.911 141.219 181.911 144.976C181.911 148.733 181.911 152.566 181.911 156.324C181.911 160.081 181.911 163.914 181.911 167.671C181.911 167.751 181.911 167.83 181.911 167.908C181.891 171.111 179.091 173.345 175.889 173.345C172.687 173.345 169.887 171.111 169.867 167.908C169.867 167.83 169.867 167.751 169.867 167.671C169.867 163.914 169.867 160.081 169.867 156.324C169.867 152.566 169.867 148.733 169.867 144.976C169.867 141.219 169.867 137.385 169.867 133.628C169.867 129.871 169.867 126.037 169.867 122.28C169.867 118.523 169.867 114.689 169.867 110.932C169.867 108.021 167.613 105.258 164.701 105.258H159.701C156.36 105.258 153.442 102.925 153.442 99.5841C153.442 96.2326 156.351 93.9102 159.702 93.9102H192.076C195.427 93.9102 198.336 96.2326 198.336 99.5841Z" fill="white"/>
<path d="M239.156 161.997C241.016 161.997 242.648 163.276 242.786 165.13C242.844 165.917 242.873 166.764 242.873 167.671C242.873 171.012 239.955 173.345 236.614 173.345H220.663C217.322 173.345 214.404 171.012 214.404 167.671C214.404 166.764 214.433 165.917 214.491 165.13C214.629 163.276 216.262 161.997 218.121 161.997C220.705 161.997 222.669 159.576 222.622 156.993C222.618 156.773 222.616 156.55 222.616 156.324C222.616 152.566 222.616 148.733 222.616 144.976C222.616 141.219 222.616 137.385 222.616 133.628C222.616 129.871 222.616 126.037 222.616 122.28C222.616 118.523 222.616 114.689 222.616 110.932C222.616 110.705 222.618 110.481 222.622 110.261C222.665 107.692 220.691 105.258 218.121 105.258C216.267 105.258 214.639 103.972 214.496 102.124C214.435 101.325 214.404 100.479 214.404 99.5841C214.404 96.2326 217.313 93.9102 220.664 93.9102H236.613C239.964 93.9102 242.873 96.2326 242.873 99.5841C242.873 100.479 242.843 101.325 242.781 102.124C242.638 103.972 241.01 105.258 239.156 105.258C236.586 105.258 234.613 107.692 234.656 110.261C234.659 110.481 234.661 110.705 234.661 110.932C234.661 114.689 234.661 118.523 234.661 122.28C234.661 126.037 234.661 129.871 234.661 133.628C234.661 137.385 234.661 141.219 234.661 144.976C234.661 148.733 234.661 152.566 234.661 156.324C234.661 156.55 234.659 156.773 234.655 156.993C234.609 159.576 236.573 161.997 239.156 161.997Z" fill="white"/>
<path d="M303.835 99.5841C303.835 103.341 303.835 107.175 303.835 110.932C303.835 114.689 303.835 118.523 303.835 122.28C303.835 123.788 303.748 125.16 303.572 126.395C303.442 127.313 302.63 127.954 301.703 127.954C300.418 127.954 299.459 129.162 299.586 130.44C299.681 131.404 299.729 132.466 299.729 133.628C299.729 135.136 299.642 136.508 299.466 137.743C299.336 138.661 298.524 139.302 297.597 139.302C296.312 139.302 295.353 140.509 295.48 141.788C295.575 142.751 295.623 143.814 295.623 144.976C295.623 146.7 295.508 148.245 295.279 149.613C295.177 150.223 294.637 150.65 294.019 150.65C293.162 150.65 292.528 151.453 292.644 152.301C292.805 153.475 292.886 154.816 292.886 156.324C292.886 157.622 292.821 158.819 292.691 159.915C292.545 161.142 291.461 161.997 290.225 161.997C288.512 161.997 287.221 163.612 287.337 165.321C287.386 166.054 287.411 166.837 287.411 167.671C287.411 167.751 287.41 167.83 287.41 167.908C287.39 171.111 284.59 173.345 281.388 173.345C278.186 173.345 275.386 171.111 275.367 167.908C275.366 167.83 275.366 167.751 275.366 167.671C275.366 166.837 275.391 166.054 275.44 165.321C275.555 163.612 274.265 161.997 272.552 161.997C271.316 161.997 270.232 161.142 270.086 159.915C269.956 158.819 269.891 157.622 269.891 156.324C269.891 154.816 269.971 153.475 270.132 152.301C270.249 151.453 269.614 150.65 268.758 150.65C268.14 150.65 267.6 150.223 267.497 149.613C267.268 148.245 267.153 146.7 267.153 144.976C267.153 143.814 267.201 142.751 267.297 141.788C267.424 140.509 266.465 139.302 265.18 139.302C264.253 139.302 263.441 138.661 263.31 137.743C263.135 136.508 263.047 135.136 263.047 133.628C263.047 132.466 263.095 131.404 263.191 130.44C263.318 129.162 262.358 127.954 261.074 127.954C260.147 127.954 259.335 127.313 259.204 126.395C259.029 125.16 258.941 123.788 258.941 122.28C258.941 118.523 258.941 114.689 258.941 110.932C258.941 107.175 258.941 103.341 258.941 99.5841C258.941 99.5042 258.941 99.4248 258.942 99.3459C258.96 96.1341 261.752 93.9102 264.963 93.9102C268.175 93.9102 270.967 96.1341 270.985 99.3459C270.986 99.4248 270.986 99.5042 270.986 99.5841C270.986 103.341 270.986 107.175 270.986 110.932C270.986 114.689 270.986 118.523 270.986 122.28C270.986 123.42 270.936 124.482 270.836 125.466C270.705 126.751 271.668 127.954 272.96 127.954C273.889 127.954 274.707 128.59 274.837 129.511C275.007 130.707 275.092 132.079 275.092 133.628C275.092 134.768 275.042 135.83 274.942 136.814C274.811 138.099 275.774 139.302 277.066 139.302C277.996 139.302 278.813 139.938 278.943 140.859C279.113 142.055 279.198 143.427 279.198 144.976C279.198 146.033 279.155 147.023 279.069 147.946C278.938 149.343 279.986 150.65 281.388 150.65C282.791 150.65 283.838 149.343 283.708 147.946C283.621 147.023 283.578 146.033 283.578 144.976C283.578 143.427 283.663 142.055 283.833 140.859C283.964 139.938 284.781 139.302 285.711 139.302C287.002 139.302 287.966 138.099 287.835 136.814C287.735 135.83 287.684 134.768 287.684 133.628C287.684 132.079 287.769 130.707 287.939 129.511C288.07 128.59 288.887 127.954 289.817 127.954C291.108 127.954 292.072 126.751 291.941 125.466C291.841 124.482 291.791 123.42 291.791 122.28C291.791 118.523 291.791 114.689 291.791 110.932C291.791 107.175 291.791 103.341 291.791 99.5841C291.791 99.5042 291.791 99.4248 291.791 99.3459C291.81 96.1341 294.601 93.9102 297.813 93.9102C301.025 93.9102 303.816 96.1341 303.835 99.3459C303.835 99.4248 303.835 99.5042 303.835 99.5841Z" fill="white"/>
<path d="M356.585 156.324C356.585 160.081 356.585 163.914 356.585 167.671C356.585 167.751 356.585 167.83 356.584 167.908C356.564 171.111 353.765 173.345 350.563 173.345C347.36 173.345 344.561 171.111 344.541 167.908C344.54 167.83 344.54 167.751 344.54 167.671C344.54 163.914 344.54 160.081 344.54 156.324C344.54 153.412 342.286 150.65 339.375 150.65H328.901C325.99 150.65 323.736 153.412 323.736 156.324C323.736 160.081 323.736 163.914 323.736 167.671C323.736 167.751 323.735 167.83 323.735 167.908C323.715 171.111 320.915 173.345 317.713 173.345C314.511 173.345 311.711 171.111 311.691 167.908C311.691 167.83 311.691 167.751 311.691 167.671C311.691 163.914 311.691 160.081 311.691 156.324C311.691 154.775 311.776 153.403 311.945 152.207C312.076 151.286 312.893 150.65 313.823 150.65C315.115 150.65 316.078 149.446 315.947 148.162C315.847 147.178 315.797 146.116 315.797 144.976C315.797 141.219 315.797 137.385 315.797 133.628C315.797 131.849 315.909 130.303 316.133 128.989C316.237 128.378 316.781 127.954 317.401 127.954C318.262 127.954 318.902 127.153 318.784 126.3C318.618 125.09 318.534 123.75 318.534 122.28C318.534 120.732 318.619 119.359 318.789 118.163C318.92 117.242 319.737 116.606 320.667 116.606C321.958 116.606 322.922 115.403 322.791 114.118C322.691 113.134 322.641 112.072 322.641 110.932C322.641 109.153 322.753 107.607 322.977 106.293C323.081 105.682 323.625 105.258 324.245 105.258C325.106 105.258 325.745 104.458 325.628 103.605C325.461 102.394 325.378 101.054 325.378 99.5841C325.378 96.2326 328.287 93.9102 331.638 93.9102H336.637C339.989 93.9102 342.898 96.2326 342.898 99.5841C342.898 101.054 342.814 102.394 342.648 103.605C342.53 104.458 343.17 105.258 344.031 105.258C344.651 105.258 345.195 105.682 345.299 106.293C345.523 107.607 345.635 109.153 345.635 110.932C345.635 112.072 345.585 113.134 345.485 114.118C345.354 115.403 346.317 116.606 347.609 116.606C348.539 116.606 349.356 117.242 349.487 118.163C349.656 119.359 349.741 120.732 349.741 122.28C349.741 123.75 349.658 125.09 349.491 126.3C349.374 127.153 350.014 127.954 350.875 127.954C351.495 127.954 352.038 128.378 352.143 128.989C352.367 130.303 352.479 131.849 352.479 133.628C352.479 137.385 352.479 141.219 352.479 144.976C352.479 146.116 352.429 147.178 352.328 148.162C352.198 149.446 353.161 150.65 354.453 150.65C355.382 150.65 356.199 151.286 356.33 152.207C356.5 153.403 356.585 154.775 356.585 156.324ZM335.27 139.302C338.196 139.302 340.434 136.554 340.434 133.628C340.434 132.12 340.515 130.779 340.676 129.606C340.792 128.757 340.157 127.954 339.301 127.954C338.683 127.954 338.143 127.527 338.041 126.917C337.811 125.55 337.697 124.004 337.697 122.28C337.697 121.721 337.708 121.186 337.73 120.673C337.82 118.583 336.23 116.606 334.138 116.606C332.045 116.606 330.456 118.583 330.546 120.673C330.568 121.186 330.579 121.721 330.579 122.28C330.579 124.004 330.465 125.55 330.235 126.917C330.133 127.527 329.593 127.954 328.975 127.954C328.118 127.954 327.484 128.757 327.6 129.606C327.761 130.779 327.842 132.12 327.842 133.628C327.842 136.554 330.08 139.302 333.006 139.302H335.27Z" fill="white"/>
<path d="M393.407 161.997C396.759 161.997 399.668 164.32 399.668 167.671C399.668 171.012 396.749 173.345 393.409 173.345H376.175C372.834 173.345 369.915 171.012 369.915 167.671C369.915 163.914 369.915 160.081 369.915 156.324C369.915 152.566 369.915 148.733 369.915 144.976C369.915 141.219 369.915 137.385 369.915 133.628C369.915 129.871 369.915 126.037 369.915 122.28C369.915 118.523 369.915 114.689 369.915 110.932C369.915 107.175 369.915 103.341 369.915 99.5841C369.915 99.5042 369.915 99.4248 369.916 99.3459C369.934 96.1341 372.726 93.9102 375.938 93.9102C379.149 93.9102 381.941 96.1341 381.959 99.3459C381.96 99.4248 381.96 99.5042 381.96 99.5841C381.96 103.341 381.96 107.175 381.96 110.932C381.96 114.689 381.96 118.523 381.96 122.28C381.96 126.037 381.96 129.871 381.96 133.628C381.96 137.385 381.96 141.219 381.96 144.976C381.96 148.733 381.96 152.566 381.96 156.324C381.96 159.25 384.198 161.997 387.124 161.997H393.407Z" fill="white"/>
<path d="M10.312 72.8817C10.2274 70.1257 8.2632 68.8205 5.50587 68.8204C2.74426 68.8204 0.777553 70.1277 0.693317 72.888C0.678135 73.3856 0.669573 73.9438 0.669573 74.5702C0.669573 79.726 1.24964 80.0712 1.32736 80.0943C1.3331 80.096 1.33892 80.0959 1.34491 80.0959H9.66028C9.66626 80.0959 9.67209 80.096 9.67782 80.0943C9.75555 80.0712 10.336 79.7261 10.3359 74.5702C10.3359 73.9411 10.3273 73.3808 10.312 72.8817Z" fill="white"/>
</svg>
