<svg width="525" height="177" viewBox="0 0 525 177" fill="none" xmlns="http://www.w3.org/2000/svg">
<mask id="path-1-outside-1_2761_1563" maskUnits="userSpaceOnUse" x="0" y="0" width="525" height="134" fill="black">
<rect fill="white" width="525" height="134"/>
<path d="M64.0458 26.5785C64.0458 26.8063 64.3389 26.8969 64.4665 26.7082C66.726 23.3677 68.7008 20.0465 71.175 17.0566C73.0511 14.6294 75.1149 12.2023 77.5538 10.1485C84.3078 3.80056 90.8742 1 96.8777 1C135.338 1 153.724 116.01 105.883 131.88C103.819 132.627 101.756 133 99.6919 133C88.7802 133 83.445 123.781 80.5102 114.142C79.166 109.728 72.7751 109.254 68.1732 108.915C66.4477 108.783 65.0273 108.254 63.8291 107.451C61.4754 105.875 57.6983 106.192 56.9166 108.915C53.352 120.491 43.7838 131.693 30.8387 131.693C13.5785 131.693 5.69879 115.076 3.25985 100.513C0.0704646 80.1627 -0.117146 59.8119 5.13596 39.6478C11.3271 16.3098 27.8369 5.2942 41.9077 5.2942C53.1644 5.2942 62.9201 12.7624 64.0458 26.5785ZM7.95013 100.7C10.2015 112.463 16.5802 127.399 30.8387 127.399C44.159 127.399 53.1644 112.463 54.1024 100.7C54.4777 95.8458 53.7272 90.9915 53.5396 86.3239C53.352 84.8303 53.7272 83.71 55.4157 83.5233C56.9166 83.1499 57.667 84.0835 58.0423 85.3904C58.7927 87.4441 59.1679 89.6846 60.106 91.7383C61.6069 95.2857 62.9201 98.8331 64.7963 102.007C65.9219 103.687 67.2352 104.621 68.5485 104.621C73.4264 104.621 77.3662 91.5516 77.3662 87.8175C77.3662 86.6973 78.3043 85.3904 79.2423 84.8303C79.8051 84.4569 81.306 85.3904 82.0565 86.1372C82.5719 86.6502 82.6153 87.633 82.4748 88.5119C82.4493 88.6715 82.4317 88.7782 82.4317 88.9398C82.4317 89.2721 82.3639 89.6553 82.2325 89.9605L82.1503 90.1513C81.9646 90.5825 81.8689 91.047 81.8689 91.5163C81.8689 91.5287 81.8689 91.5405 81.8689 91.5516C82.2441 96.7794 82.4317 101.82 83.3697 106.861C84.683 115.076 89.1857 128.519 99.5043 128.519C101.005 128.519 102.694 128.146 104.382 127.586C146.97 113.396 130.648 5.66761 96.6901 5.66761C80.9308 5.66761 69.1113 27.1386 63.1078 39.0877C62.7325 39.8345 61.4193 40.5813 60.6688 40.5813C60.106 40.5813 59.1679 39.0877 59.1679 38.3409C59.1679 34.6068 59.7308 30.686 59.5431 26.9519C58.9803 15.9363 51.1007 9.96181 41.7201 9.96181C30.6511 9.96181 17.3307 18.1768 10.9519 36.1004C4.38552 54.7709 4.0103 81.0962 7.95013 100.7ZM259.249 62.4257C259.249 99.9533 229.419 133 191.334 133C165.631 133 145.369 118.997 139.741 93.232C134.488 68.587 140.491 45.9958 153.812 25.2716C164.693 8.46817 176.888 1.74682 191.522 1.74682C199.964 1.74682 209.345 4.17397 219.663 8.09476C244.428 17.8034 258.686 35.727 259.249 62.4257ZM254.747 63.3593C254.747 54.5842 252.683 45.2489 249.118 37.9675C238.612 17.6167 212.722 6.97454 190.396 6.97454C184.768 6.97454 179.327 7.90806 175.387 10.3352C167.695 15.0028 161.504 21.1641 156.814 28.819C144.619 48.2362 139.366 69.1471 144.056 91.7383C147.058 105.554 153.812 116.57 167.132 122.918C175.012 126.652 183.079 128.519 191.334 128.519C226.605 128.519 254.559 98.0863 254.747 63.3593ZM197.643 65.6901C197.485 65.448 197.077 65.4062 196.982 65.6793C196.953 65.7607 196.938 65.8252 196.892 65.8983C190.726 75.7577 184.745 85.8018 178.764 95.8458C177.653 97.32 176.82 99.82 175.008 99.4665C174.94 99.4533 174.879 99.4294 174.824 99.3932C174.074 99.0198 173.511 97.7129 173.511 96.7794C173.511 95.8458 174.261 94.9123 174.824 93.7921C181.203 83.3366 187.582 72.5078 193.961 61.8656C194.148 61.4922 194.148 60.372 193.961 59.9986C192.084 57.0113 190.208 54.2108 188.145 51.2235C187.754 50.4456 186.542 50.6106 185.848 50.086C184.886 49.3597 184.533 48.2378 184.392 47.116C184.392 45.0067 186.849 43.6972 188.56 44.9306C188.695 45.0274 188.808 45.1337 188.895 45.2489C191.51 48.7811 193.94 52.3133 196.553 55.8455C196.576 55.8758 196.591 55.8937 196.616 55.9216C196.961 56.2992 197.514 56.4382 197.755 55.9873C197.806 55.893 197.853 55.7987 197.9 55.7044C201.84 49.9165 205.968 43.7553 209.907 37.7808C210.846 36.6605 211.784 35.727 213.284 36.8472C214.598 37.7808 214.035 39.0877 213.284 40.2079C208.969 46.9293 204.654 53.6506 200.339 60.1853C199.935 60.9894 200.575 61.8812 201.048 62.6473C203.725 66.99 206.413 71.0892 209.221 75.1657C209.801 76.0079 210.846 76.7128 210.846 77.7355C210.846 79.548 209.427 81.3147 207.879 80.3719C207.867 80.3645 207.855 80.357 207.844 80.3494C206.616 79.6513 199.488 68.514 197.643 65.6901ZM383.468 62.4257C383.468 99.9533 353.638 133 315.553 133C289.85 133 269.588 118.997 263.96 93.232C258.707 68.587 264.71 45.9958 278.031 25.2716C288.912 8.46817 301.107 1.74682 315.741 1.74682C324.183 1.74682 333.564 4.17397 343.882 8.09476C368.647 17.8034 382.905 35.727 383.468 62.4257ZM378.966 63.3593C378.966 54.5842 376.902 45.2489 373.337 37.9675C362.831 17.6167 336.941 6.97454 314.615 6.97454C308.987 6.97454 303.546 7.90806 299.606 10.3352C291.914 15.0028 285.723 21.1641 281.033 28.819C268.838 48.2362 263.585 69.1471 268.275 91.7383C271.277 105.554 278.031 116.57 291.351 122.918C299.231 126.652 307.298 128.519 315.553 128.519C350.824 128.519 378.778 98.0863 378.966 63.3593ZM321.862 65.6901C321.704 65.448 321.296 65.4062 321.201 65.6793C321.172 65.7607 321.157 65.8252 321.111 65.8983C314.945 75.7577 308.964 85.8018 302.983 95.8458C301.872 97.32 301.039 99.82 299.227 99.4665C299.159 99.4533 299.098 99.4294 299.043 99.3932C298.293 99.0198 297.73 97.7129 297.73 96.7794C297.73 95.8458 298.48 94.9123 299.043 93.7921C305.422 83.3366 311.801 72.5078 318.18 61.8656C318.367 61.4922 318.367 60.372 318.18 59.9986C316.303 57.0113 314.427 54.2108 312.364 51.2235C311.973 50.4456 310.761 50.6106 310.067 50.086C309.105 49.3597 308.752 48.2378 308.611 47.116C308.611 45.0067 311.068 43.6972 312.779 44.9306C312.914 45.0274 313.027 45.1337 313.114 45.2489C315.729 48.7811 318.159 52.3133 320.772 55.8455C320.795 55.8758 320.81 55.8937 320.835 55.9216C321.18 56.2992 321.733 56.4382 321.974 55.9873C322.025 55.893 322.072 55.7987 322.119 55.7044C326.059 49.9165 330.187 43.7553 334.126 37.7808C335.065 36.6605 336.003 35.727 337.503 36.8472C338.817 37.7808 338.254 39.0877 337.503 40.2079C333.188 46.9293 328.873 53.6506 324.558 60.1853C324.154 60.9894 324.794 61.8812 325.267 62.6473C327.944 66.99 330.632 71.0892 333.44 75.1657C334.02 76.0079 335.065 76.7128 335.065 77.7355C335.065 79.548 333.646 81.3147 332.098 80.3719C332.086 80.3645 332.074 80.357 332.063 80.3494C330.835 79.6513 323.707 68.514 321.862 65.6901ZM458.721 32.2319C458.721 32.7053 459.225 32.7687 459.469 32.3633C467.897 18.3897 480.136 2.49363 498.119 2.49363C511.064 2.49363 522.508 11.4554 523.822 24.8982C524.572 34.7935 522.884 44.8755 520.069 54.9576C512.94 80.1627 498.869 108.728 477.107 124.598C469.039 130.199 461.347 133 453.468 133C437.333 133 424.576 121.611 414.257 110.595C402.062 96.966 392.682 81.2829 388.179 62.7992C382.738 39.4611 388.554 10.5219 417.071 6.60113C435.815 4.17615 455.121 12.3742 458.711 32.1263C458.717 32.1613 458.721 32.1963 458.721 32.2319ZM519.131 26.3918C518.381 14.8161 509 6.97454 497.744 6.97454C486.862 6.97454 476.919 14.4427 470.915 23.0311C467.538 27.6987 464.724 32.9265 461.535 37.7808C460.707 39.1936 460.102 40.6065 459.863 42.113C459.573 43.9365 460.004 46.9293 458.158 46.9293C456.845 47.116 455.344 46.7426 454.593 45.9958C454.491 45.8941 454.414 45.7555 454.355 45.5901C453.698 43.7267 455.156 41.8103 455.156 39.8345C454.968 37.7808 454.406 35.5403 454.03 33.4866C451.404 15.9363 432.643 9.02829 416.696 11.2687C392.119 14.8161 387.991 41.5149 392.869 61.4922C397.372 79.4158 406.377 94.3522 418.384 107.608C427.39 117.69 439.772 128.332 454.03 128.332C460.784 128.332 467.351 126.092 474.105 121.051C499.995 102.567 520.445 58.3182 519.131 26.3918Z"/>
</mask>
<path d="M64.0458 26.5785C64.0458 26.8063 64.3389 26.8969 64.4665 26.7082C66.726 23.3677 68.7008 20.0465 71.175 17.0566C73.0511 14.6294 75.1149 12.2023 77.5538 10.1485C84.3078 3.80056 90.8742 1 96.8777 1C135.338 1 153.724 116.01 105.883 131.88C103.819 132.627 101.756 133 99.6919 133C88.7802 133 83.445 123.781 80.5102 114.142C79.166 109.728 72.7751 109.254 68.1732 108.915C66.4477 108.783 65.0273 108.254 63.8291 107.451C61.4754 105.875 57.6983 106.192 56.9166 108.915C53.352 120.491 43.7838 131.693 30.8387 131.693C13.5785 131.693 5.69879 115.076 3.25985 100.513C0.0704646 80.1627 -0.117146 59.8119 5.13596 39.6478C11.3271 16.3098 27.8369 5.2942 41.9077 5.2942C53.1644 5.2942 62.9201 12.7624 64.0458 26.5785ZM7.95013 100.7C10.2015 112.463 16.5802 127.399 30.8387 127.399C44.159 127.399 53.1644 112.463 54.1024 100.7C54.4777 95.8458 53.7272 90.9915 53.5396 86.3239C53.352 84.8303 53.7272 83.71 55.4157 83.5233C56.9166 83.1499 57.667 84.0835 58.0423 85.3904C58.7927 87.4441 59.1679 89.6846 60.106 91.7383C61.6069 95.2857 62.9201 98.8331 64.7963 102.007C65.9219 103.687 67.2352 104.621 68.5485 104.621C73.4264 104.621 77.3662 91.5516 77.3662 87.8175C77.3662 86.6973 78.3043 85.3904 79.2423 84.8303C79.8051 84.4569 81.306 85.3904 82.0565 86.1372C82.5719 86.6502 82.6153 87.633 82.4748 88.5119C82.4493 88.6715 82.4317 88.7782 82.4317 88.9398C82.4317 89.2721 82.3639 89.6553 82.2325 89.9605L82.1503 90.1513C81.9646 90.5825 81.8689 91.047 81.8689 91.5163C81.8689 91.5287 81.8689 91.5405 81.8689 91.5516C82.2441 96.7794 82.4317 101.82 83.3697 106.861C84.683 115.076 89.1857 128.519 99.5043 128.519C101.005 128.519 102.694 128.146 104.382 127.586C146.97 113.396 130.648 5.66761 96.6901 5.66761C80.9308 5.66761 69.1113 27.1386 63.1078 39.0877C62.7325 39.8345 61.4193 40.5813 60.6688 40.5813C60.106 40.5813 59.1679 39.0877 59.1679 38.3409C59.1679 34.6068 59.7308 30.686 59.5431 26.9519C58.9803 15.9363 51.1007 9.96181 41.7201 9.96181C30.6511 9.96181 17.3307 18.1768 10.9519 36.1004C4.38552 54.7709 4.0103 81.0962 7.95013 100.7ZM259.249 62.4257C259.249 99.9533 229.419 133 191.334 133C165.631 133 145.369 118.997 139.741 93.232C134.488 68.587 140.491 45.9958 153.812 25.2716C164.693 8.46817 176.888 1.74682 191.522 1.74682C199.964 1.74682 209.345 4.17397 219.663 8.09476C244.428 17.8034 258.686 35.727 259.249 62.4257ZM254.747 63.3593C254.747 54.5842 252.683 45.2489 249.118 37.9675C238.612 17.6167 212.722 6.97454 190.396 6.97454C184.768 6.97454 179.327 7.90806 175.387 10.3352C167.695 15.0028 161.504 21.1641 156.814 28.819C144.619 48.2362 139.366 69.1471 144.056 91.7383C147.058 105.554 153.812 116.57 167.132 122.918C175.012 126.652 183.079 128.519 191.334 128.519C226.605 128.519 254.559 98.0863 254.747 63.3593ZM197.643 65.6901C197.485 65.448 197.077 65.4062 196.982 65.6793C196.953 65.7607 196.938 65.8252 196.892 65.8983C190.726 75.7577 184.745 85.8018 178.764 95.8458C177.653 97.32 176.82 99.82 175.008 99.4665C174.94 99.4533 174.879 99.4294 174.824 99.3932C174.074 99.0198 173.511 97.7129 173.511 96.7794C173.511 95.8458 174.261 94.9123 174.824 93.7921C181.203 83.3366 187.582 72.5078 193.961 61.8656C194.148 61.4922 194.148 60.372 193.961 59.9986C192.084 57.0113 190.208 54.2108 188.145 51.2235C187.754 50.4456 186.542 50.6106 185.848 50.086C184.886 49.3597 184.533 48.2378 184.392 47.116C184.392 45.0067 186.849 43.6972 188.56 44.9306C188.695 45.0274 188.808 45.1337 188.895 45.2489C191.51 48.7811 193.94 52.3133 196.553 55.8455C196.576 55.8758 196.591 55.8937 196.616 55.9216C196.961 56.2992 197.514 56.4382 197.755 55.9873C197.806 55.893 197.853 55.7987 197.9 55.7044C201.84 49.9165 205.968 43.7553 209.907 37.7808C210.846 36.6605 211.784 35.727 213.284 36.8472C214.598 37.7808 214.035 39.0877 213.284 40.2079C208.969 46.9293 204.654 53.6506 200.339 60.1853C199.935 60.9894 200.575 61.8812 201.048 62.6473C203.725 66.99 206.413 71.0892 209.221 75.1657C209.801 76.0079 210.846 76.7128 210.846 77.7355C210.846 79.548 209.427 81.3147 207.879 80.3719C207.867 80.3645 207.855 80.357 207.844 80.3494C206.616 79.6513 199.488 68.514 197.643 65.6901ZM383.468 62.4257C383.468 99.9533 353.638 133 315.553 133C289.85 133 269.588 118.997 263.96 93.232C258.707 68.587 264.71 45.9958 278.031 25.2716C288.912 8.46817 301.107 1.74682 315.741 1.74682C324.183 1.74682 333.564 4.17397 343.882 8.09476C368.647 17.8034 382.905 35.727 383.468 62.4257ZM378.966 63.3593C378.966 54.5842 376.902 45.2489 373.337 37.9675C362.831 17.6167 336.941 6.97454 314.615 6.97454C308.987 6.97454 303.546 7.90806 299.606 10.3352C291.914 15.0028 285.723 21.1641 281.033 28.819C268.838 48.2362 263.585 69.1471 268.275 91.7383C271.277 105.554 278.031 116.57 291.351 122.918C299.231 126.652 307.298 128.519 315.553 128.519C350.824 128.519 378.778 98.0863 378.966 63.3593ZM321.862 65.6901C321.704 65.448 321.296 65.4062 321.201 65.6793C321.172 65.7607 321.157 65.8252 321.111 65.8983C314.945 75.7577 308.964 85.8018 302.983 95.8458C301.872 97.32 301.039 99.82 299.227 99.4665C299.159 99.4533 299.098 99.4294 299.043 99.3932C298.293 99.0198 297.73 97.7129 297.73 96.7794C297.73 95.8458 298.48 94.9123 299.043 93.7921C305.422 83.3366 311.801 72.5078 318.18 61.8656C318.367 61.4922 318.367 60.372 318.18 59.9986C316.303 57.0113 314.427 54.2108 312.364 51.2235C311.973 50.4456 310.761 50.6106 310.067 50.086C309.105 49.3597 308.752 48.2378 308.611 47.116C308.611 45.0067 311.068 43.6972 312.779 44.9306C312.914 45.0274 313.027 45.1337 313.114 45.2489C315.729 48.7811 318.159 52.3133 320.772 55.8455C320.795 55.8758 320.81 55.8937 320.835 55.9216C321.18 56.2992 321.733 56.4382 321.974 55.9873C322.025 55.893 322.072 55.7987 322.119 55.7044C326.059 49.9165 330.187 43.7553 334.126 37.7808C335.065 36.6605 336.003 35.727 337.503 36.8472C338.817 37.7808 338.254 39.0877 337.503 40.2079C333.188 46.9293 328.873 53.6506 324.558 60.1853C324.154 60.9894 324.794 61.8812 325.267 62.6473C327.944 66.99 330.632 71.0892 333.44 75.1657C334.02 76.0079 335.065 76.7128 335.065 77.7355C335.065 79.548 333.646 81.3147 332.098 80.3719C332.086 80.3645 332.074 80.357 332.063 80.3494C330.835 79.6513 323.707 68.514 321.862 65.6901ZM458.721 32.2319C458.721 32.7053 459.225 32.7687 459.469 32.3633C467.897 18.3897 480.136 2.49363 498.119 2.49363C511.064 2.49363 522.508 11.4554 523.822 24.8982C524.572 34.7935 522.884 44.8755 520.069 54.9576C512.94 80.1627 498.869 108.728 477.107 124.598C469.039 130.199 461.347 133 453.468 133C437.333 133 424.576 121.611 414.257 110.595C402.062 96.966 392.682 81.2829 388.179 62.7992C382.738 39.4611 388.554 10.5219 417.071 6.60113C435.815 4.17615 455.121 12.3742 458.711 32.1263C458.717 32.1613 458.721 32.1963 458.721 32.2319ZM519.131 26.3918C518.381 14.8161 509 6.97454 497.744 6.97454C486.862 6.97454 476.919 14.4427 470.915 23.0311C467.538 27.6987 464.724 32.9265 461.535 37.7808C460.707 39.1936 460.102 40.6065 459.863 42.113C459.573 43.9365 460.004 46.9293 458.158 46.9293C456.845 47.116 455.344 46.7426 454.593 45.9958C454.491 45.8941 454.414 45.7555 454.355 45.5901C453.698 43.7267 455.156 41.8103 455.156 39.8345C454.968 37.7808 454.406 35.5403 454.03 33.4866C451.404 15.9363 432.643 9.02829 416.696 11.2687C392.119 14.8161 387.991 41.5149 392.869 61.4922C397.372 79.4158 406.377 94.3522 418.384 107.608C427.39 117.69 439.772 128.332 454.03 128.332C460.784 128.332 467.351 126.092 474.105 121.051C499.995 102.567 520.445 58.3182 519.131 26.3918Z" stroke="white" stroke-width="1.38125" mask="url(#path-1-outside-1_2761_1563)"/>
<path d="M145.808 168.411C145.808 171.104 147.278 173.707 151.178 173.707C155.048 173.707 156.518 171.104 156.518 168.411C156.518 165.777 155.048 163.174 151.178 163.174C147.278 163.174 145.808 165.777 145.808 168.411ZM160.478 154.555V176.281H156.338V174.096H156.278C155.978 175.054 153.488 176.88 150.188 176.88C144.128 176.88 141.488 172.48 141.488 168.411C141.488 164.4 144.128 160.001 150.188 160.001C152.678 160.001 155.048 160.779 156.278 162.695H156.338V154.555H160.478Z" fill="white"/>
<path d="M180.899 165.149V172.66C180.899 173.528 181.529 173.558 181.799 173.558C182.189 173.558 182.819 173.528 183.149 173.468V176.371C182.339 176.52 181.619 176.73 180.209 176.73C177.509 176.73 177.209 175.294 177.089 174.695C176.279 175.473 174.269 176.88 169.619 176.88C165.479 176.88 163.139 175.024 163.139 171.912C163.139 167.543 167.639 167.154 170.279 166.914C176.219 166.346 176.849 166.136 176.849 164.909C176.849 163.084 174.749 162.635 172.349 162.635C169.619 162.635 168.149 163.503 167.999 165.268H163.949C164.549 161.109 167.639 159.822 172.349 159.822C180.659 159.822 180.899 163.084 180.899 165.149ZM176.759 169.907V168.381C175.559 168.889 174.269 169.039 171.329 169.368C168.209 169.727 167.459 170.416 167.459 171.762C167.459 173.857 169.379 174.246 170.789 174.246C173.009 174.246 176.759 173.408 176.759 169.907Z" fill="white"/>
<path d="M184.952 176.281V160.42H189.092V162.814H189.152C190.502 161.109 192.602 160.001 195.422 160.001C198.842 160.001 202.172 161.228 202.172 165.508V176.281H198.032V166.824C198.032 165.119 197.462 163.174 194.042 163.174C191.882 163.174 189.092 164.371 189.092 167.752V176.281H184.952Z" fill="white"/>
<path d="M223.398 165.987H219.078C218.778 164.341 217.038 162.994 214.668 162.994C210.828 162.994 209.148 165.598 209.148 168.351C209.148 171.104 210.648 173.707 214.218 173.707C217.428 173.707 218.298 172.451 219.168 170.206H223.488C222.528 176.79 215.778 176.88 214.668 176.88C207.558 176.88 204.828 172.72 204.828 168.351C204.828 163.233 208.518 159.822 214.668 159.822C217.068 159.822 222.528 160.63 223.398 165.987Z" fill="white"/>
<path d="M244.865 169.398H229.865C229.955 171.164 231.155 173.887 235.265 173.887C237.995 173.887 239.195 172.929 240.005 171.613H244.505C243.605 173.378 241.445 176.88 235.385 176.88C228.215 176.88 225.545 172.72 225.545 168.5C225.545 163.203 229.475 159.822 235.115 159.822C242.165 159.822 244.865 164.161 244.865 168.8V169.398ZM229.865 166.765H240.545C240.035 163.592 237.215 162.635 235.175 162.635C233.255 162.635 230.555 163.533 229.865 166.765Z" fill="white"/>
<path d="M259.513 176.281V163.413H256.243V160.42H259.513V158.385C259.513 156.62 259.963 154.315 264.283 154.315C266.083 154.315 267.042 154.375 268.002 154.435V157.428C267.552 157.368 266.652 157.308 265.872 157.308C263.982 157.308 263.652 157.757 263.652 159.193V160.42H268.002V163.413H263.652V176.281H259.513Z" fill="white"/>
<path d="M288.166 169.398H273.166C273.256 171.164 274.456 173.887 278.566 173.887C281.296 173.887 282.496 172.929 283.306 171.613H287.806C286.906 173.378 284.746 176.88 278.686 176.88C271.516 176.88 268.846 172.72 268.846 168.5C268.846 163.203 272.776 159.822 278.416 159.822C285.466 159.822 288.166 164.161 288.166 168.8V169.398ZM273.166 166.765H283.846C283.336 163.592 280.516 162.635 278.476 162.635C276.556 162.635 273.856 163.533 273.166 166.765Z" fill="white"/>
<path d="M290.196 171.313H294.696C294.816 173.707 297.576 174.067 299.076 174.067C301.146 174.067 303.396 173.528 303.396 172.032C303.396 170.805 302.706 170.386 298.236 169.787C293.316 169.129 290.736 168.56 290.736 164.939C290.736 160.42 296.016 159.822 298.686 159.822C301.146 159.822 307.056 160.181 307.296 165.268H302.976C302.646 162.904 299.886 162.635 298.476 162.635C296.136 162.635 294.876 163.622 294.876 164.46C294.876 165.747 295.266 165.957 299.256 166.525C304.476 167.273 307.896 167.782 307.896 171.463C307.896 175.503 304.026 176.88 299.106 176.88C295.716 176.88 290.346 176.161 290.196 171.313Z" fill="white"/>
<path d="M311.75 171.852V163.413H308.45V160.42H311.75V155.512H315.89V160.42H320.21V163.413H315.89V170.655C315.89 172.48 315.98 173.468 317.39 173.468C318.41 173.468 319.37 173.438 320.36 173.408V176.401C319.25 176.55 318.44 176.64 317.18 176.64C312.14 176.64 311.75 174.845 311.75 171.852Z" fill="white"/>
<path d="M322.796 176.281V160.42H326.936V176.281H322.796ZM322.796 157.907V154.555H326.936V157.907H322.796Z" fill="white"/>
<path d="M335.961 176.281L328.701 160.42H333.381L338.121 172.211L343.041 160.42H347.721L340.461 176.281H335.961Z" fill="white"/>
<path d="M366.377 165.149V172.66C366.377 173.528 367.007 173.558 367.277 173.558C367.667 173.558 368.297 173.528 368.627 173.468V176.371C367.817 176.52 367.097 176.73 365.687 176.73C362.987 176.73 362.687 175.294 362.567 174.695C361.757 175.473 359.747 176.88 355.097 176.88C350.957 176.88 348.617 175.024 348.617 171.912C348.617 167.543 353.117 167.154 355.757 166.914C361.697 166.346 362.327 166.136 362.327 164.909C362.327 163.084 360.227 162.635 357.827 162.635C355.097 162.635 353.627 163.503 353.477 165.268H349.427C350.027 161.109 353.117 159.822 357.827 159.822C366.137 159.822 366.377 163.084 366.377 165.149ZM362.237 169.907V168.381C361.037 168.889 359.747 169.039 356.807 169.368C353.687 169.727 352.937 170.416 352.937 171.762C352.937 173.857 354.857 174.246 356.267 174.246C358.487 174.246 362.237 173.408 362.237 169.907Z" fill="white"/>
<path d="M370.55 176.281V154.555H374.69V176.281H370.55Z" fill="white"/>
</svg>
