<svg width="40" height="30" viewBox="0 0 40 30" fill="none" xmlns="http://www.w3.org/2000/svg">
<path fill-rule="evenodd" clip-rule="evenodd" d="M24.5001 0.963961C24.2472 0.49585 23.5771 0.468779 23.2863 0.915151L17.5907 9.65906C17.4574 9.86371 17.4424 10.1222 17.5511 10.3405L26.9014 29.1265C26.9858 29.2962 27.1609 29.404 27.3529 29.404L38.691 29.404C39.2232 29.404 39.562 28.8448 39.3124 28.3829L24.5001 0.963961ZM22.7793 0.592496C23.3191 -0.236136 24.5624 -0.186189 25.0321 0.683216L39.8443 28.1021C40.3091 28.9624 39.6771 30 38.691 30L27.3529 30C26.9314 30 26.5464 29.7634 26.3603 29.3896L17.01 10.6036C16.8079 10.1976 16.8359 9.71685 17.0837 9.33641L22.7793 0.592496ZM12.1917 6.39835C11.9313 5.8714 11.1671 5.88008 10.919 6.41272L0.668869 28.4195C0.454872 28.879 0.794664 29.404 1.3087 29.404H22.4342C22.9553 29.404 23.2948 28.8659 23.0671 28.4052L12.1917 6.39835ZM10.3712 6.16347C10.832 5.17422 12.25 5.15824 12.7336 6.13675L23.609 28.1436C24.0329 29.0015 23.3996 30 22.4342 30H1.3087C0.35627 30 -0.277392 29.0259 0.121127 28.1703L10.3712 6.16347Z" fill="url(#paint0_linear_1398_1615)"/>
<path d="M10.919 6.41272C11.1671 5.88008 11.9313 5.8714 12.1917 6.39835L23.0671 28.4052C23.2948 28.8659 22.9553 29.404 22.4342 29.404H1.3087C0.794664 29.404 0.454872 28.879 0.668869 28.4195L10.919 6.41272Z" fill="url(#paint1_linear_1398_1615)"/>
<path d="M23.2863 0.915151C23.5771 0.468779 24.2472 0.49585 24.5001 0.963961L39.3124 28.3829C39.562 28.8448 39.2232 29.404 38.691 29.404L27.3529 29.404C27.1609 29.404 26.9858 29.2962 26.9014 29.1265L17.5511 10.3405C17.4424 10.1222 17.4574 9.86371 17.5907 9.65906L23.2863 0.915151Z" fill="url(#paint2_linear_1398_1615)"/>
<defs>
<linearGradient id="paint0_linear_1398_1615" x1="0" y1="0" x2="39.0884" y2="31.1441" gradientUnits="userSpaceOnUse">
<stop stop-color="#FFF9F8"/>
<stop offset="0.0001" stop-color="#FFF9F8"/>
<stop offset="1" stop-color="white"/>
</linearGradient>
<linearGradient id="paint1_linear_1398_1615" x1="0" y1="0" x2="39.0884" y2="31.1441" gradientUnits="userSpaceOnUse">
<stop stop-color="#FFF9F8"/>
<stop offset="0.0001" stop-color="#FFF9F8"/>
<stop offset="1" stop-color="white"/>
</linearGradient>
<linearGradient id="paint2_linear_1398_1615" x1="0" y1="0" x2="39.0884" y2="31.1441" gradientUnits="userSpaceOnUse">
<stop stop-color="#FFF9F8"/>
<stop offset="0.0001" stop-color="#FFF9F8"/>
<stop offset="1" stop-color="white"/>
</linearGradient>
</defs>
</svg>
