<svg width="911" height="135" viewBox="0 0 911 135" fill="none" xmlns="http://www.w3.org/2000/svg">
<path d="M56.5893 131.576C54.5488 131.576 52.7201 130.461 51.9925 128.774L0.328056 8.97993C-0.901425 6.12914 1.47723 3.07215 4.92492 3.07215H50.6036C52.7892 3.07215 54.7129 4.34823 55.3262 6.20496L69.6585 49.5933C71.9057 56.3813 73.5581 62.116 74.6156 66.7973C75.6981 71.3073 76.4125 75.5456 76.7588 79.5125C76.781 79.7667 77.02 79.9637 77.3081 79.9637C77.5831 79.9637 77.8155 79.7838 77.8531 79.5428C78.5092 75.3379 79.4129 70.9139 80.5641 66.2707C81.8199 61.4723 83.4062 56.2643 85.323 50.6466L100.525 6.16612C101.153 4.32888 103.066 3.07215 105.235 3.07215H149.867C153.313 3.07215 155.691 6.12505 154.466 8.97507L102.987 128.769C102.261 130.459 100.43 131.576 98.3878 131.576H56.5893Z" fill="url(#paint0_linear_2619_2017)"/>
<path d="M229.306 91.8134C236.642 91.8134 242.525 89.619 246.953 85.2302C251.447 80.7829 253.695 74.902 253.695 67.5873C253.695 60.2142 251.447 54.3039 246.953 49.8566C242.525 45.3508 236.642 43.0979 229.306 43.0979C221.969 43.0979 216.054 45.3508 211.559 49.8566C207.065 54.3624 204.817 60.2727 204.817 67.5873C204.817 74.902 207.065 80.7829 211.559 85.2302C216.054 89.619 221.969 91.8134 229.306 91.8134ZM306.934 67.5873C306.934 77.0086 305.05 85.7861 301.283 93.92C297.516 101.995 291.997 109.222 284.726 115.601C277.456 121.862 269.062 126.66 259.544 129.996C250.093 133.331 240.013 134.999 229.306 134.999C218.466 134.999 208.32 133.331 198.869 129.996C189.417 126.66 181.023 121.803 173.687 115.425C166.482 109.222 161.03 102.083 157.328 94.0078C153.627 85.9325 151.776 77.1256 151.776 67.5873C151.776 58.049 153.627 49.2129 157.328 41.079C161.03 32.9452 166.482 25.7768 173.687 19.574C180.957 13.2541 189.318 8.45573 198.77 5.17877C208.221 1.84329 218.4 0.175552 229.306 0.175552C240.211 0.175552 250.39 1.84329 259.842 5.17877C269.293 8.45573 277.687 13.2541 285.024 19.574C292.162 25.8353 297.582 33.0329 301.283 41.1668C305.05 49.3007 306.934 58.1075 306.934 67.5873Z" fill="url(#paint1_linear_2619_2017)"/>
<path d="M327.866 131.576C325.149 131.576 322.946 129.626 322.946 127.221V7.42695C322.946 5.02186 325.149 3.07215 327.866 3.07215H370.274C372.991 3.07215 375.194 5.02187 375.194 7.42696V85.5275C375.194 87.9326 377.397 89.8824 380.114 89.8824H421.035C423.752 89.8824 425.955 91.8321 425.955 94.2372V127.221C425.955 129.626 423.752 131.576 421.035 131.576H327.866Z" fill="url(#paint2_linear_2619_2017)"/>
<path d="M545.648 43.8625C545.648 47.698 540.294 49.7843 536.643 47.7184C534.8 46.6761 532.944 45.7796 531.074 45.029C526.117 43.0394 520.895 42.0446 515.409 42.0446C506.883 42.0446 500.009 44.3853 494.788 49.0666C489.632 53.6895 487.055 59.8631 487.055 67.5873C487.055 75.136 489.533 81.1633 494.49 85.6691C499.447 90.1749 506.09 92.4279 514.418 92.4279C519.441 92.4279 524.53 91.4916 529.686 89.619C532.408 88.6125 535.255 87.3039 538.228 85.6932C541.763 83.778 546.547 85.9772 546.419 89.6439L545.152 126.024C545.092 127.745 543.895 129.283 542.07 129.881C537.38 131.419 532.69 132.598 528 133.419C522.316 134.472 516.632 134.999 510.948 134.999C503.876 134.999 497.068 134.297 490.525 132.892C483.981 131.488 478.066 129.498 472.778 126.924C459.956 120.37 450.24 112.09 443.63 102.083C437.087 92.0768 433.815 80.5781 433.815 67.5873C433.815 57.9905 435.666 49.0959 439.367 40.9035C443.134 32.7111 448.587 25.4842 455.725 19.2229C462.93 12.903 471.258 8.13388 480.709 4.91544C490.227 1.63848 500.505 0 511.543 0C517.425 0 523.208 0.555913 528.893 1.66774C533.616 2.53287 538.227 3.77301 542.727 5.38818C544.519 6.03153 545.648 7.59578 545.648 9.30765V43.8625Z" fill="url(#paint3_linear_2619_2017)"/>
<path d="M770.974 131.576C768.257 131.576 766.054 129.626 766.054 127.221V7.42689C766.054 5.0218 768.257 3.07209 770.974 3.07209H814.411C816.147 3.07209 817.755 3.88208 818.641 5.20347L856.559 61.7194C857.729 63.4633 861.18 62.4136 861.032 60.3897C860.834 56.7616 860.735 52.0217 860.735 46.17V7.42691C860.735 5.02181 862.938 3.07209 865.655 3.07209H906.08C908.797 3.07209 911 5.02181 911 7.4269V127.221C911 129.626 908.797 131.576 906.08 131.576H862.251C860.512 131.576 858.903 130.764 858.017 129.439L820.223 72.9269C819.099 71.247 815.867 72.2232 816.022 74.1704C816.286 77.4474 816.418 81.134 816.418 85.2302V127.221C816.418 129.626 814.215 131.576 811.498 131.576H770.974Z" fill="url(#paint4_linear_2619_2017)"/>
<path d="M672.197 125.251C673.791 128.144 671.411 131.515 667.775 131.515H564.411C560.823 131.515 558.442 128.227 559.94 125.342L610.093 28.7838C611.827 25.445 617.166 25.3909 618.986 28.6936L672.197 125.251Z" fill="url(#paint5_linear_2619_2017)"/>
<path d="M751.659 125.112C753.406 128.012 751.031 131.515 747.317 131.515H691.841C690.341 131.515 688.97 130.76 688.308 129.568L642.559 47.1416C641.799 45.7719 641.904 44.1501 642.836 42.8665L670.704 4.50144C672.736 1.70431 677.417 1.87328 679.184 4.80754L751.659 125.112Z" fill="url(#paint6_linear_2619_2017)"/>
<defs>
<linearGradient id="paint0_linear_2619_2017" x1="0" y1="0" x2="84.3156" y2="340.004" gradientUnits="userSpaceOnUse">
<stop stop-color="#FFF9F8"/>
<stop offset="0.0001" stop-color="#FFF9F8"/>
<stop offset="1" stop-color="white"/>
</linearGradient>
<linearGradient id="paint1_linear_2619_2017" x1="0" y1="0" x2="84.3156" y2="340.004" gradientUnits="userSpaceOnUse">
<stop stop-color="#FFF9F8"/>
<stop offset="0.0001" stop-color="#FFF9F8"/>
<stop offset="1" stop-color="white"/>
</linearGradient>
<linearGradient id="paint2_linear_2619_2017" x1="0" y1="0" x2="84.3156" y2="340.004" gradientUnits="userSpaceOnUse">
<stop stop-color="#FFF9F8"/>
<stop offset="0.0001" stop-color="#FFF9F8"/>
<stop offset="1" stop-color="white"/>
</linearGradient>
<linearGradient id="paint3_linear_2619_2017" x1="0" y1="0" x2="84.3156" y2="340.004" gradientUnits="userSpaceOnUse">
<stop stop-color="#FFF9F8"/>
<stop offset="0.0001" stop-color="#FFF9F8"/>
<stop offset="1" stop-color="white"/>
</linearGradient>
<linearGradient id="paint4_linear_2619_2017" x1="0" y1="0" x2="84.3156" y2="340.004" gradientUnits="userSpaceOnUse">
<stop stop-color="#FFF9F8"/>
<stop offset="0.0001" stop-color="#FFF9F8"/>
<stop offset="1" stop-color="white"/>
</linearGradient>
<linearGradient id="paint5_linear_2619_2017" x1="0" y1="0" x2="84.3156" y2="340.004" gradientUnits="userSpaceOnUse">
<stop stop-color="#FFF9F8"/>
<stop offset="0.0001" stop-color="#FFF9F8"/>
<stop offset="1" stop-color="white"/>
</linearGradient>
<linearGradient id="paint6_linear_2619_2017" x1="0" y1="0" x2="84.3156" y2="340.004" gradientUnits="userSpaceOnUse">
<stop stop-color="#FFF9F8"/>
<stop offset="0.0001" stop-color="#FFF9F8"/>
<stop offset="1" stop-color="white"/>
</linearGradient>
</defs>
</svg>
